<svg width="375" height="375" viewBox="0 0 375 375" fill="none" xmlns="http://www.w3.org/2000/svg">
<path d="M162.538 0.464396C72.9101 0.464396 0 73.3745 0 163.003C0 252.631 72.9101 325.541 162.538 325.541C189.938 325.541 216.873 319.04 239.628 306.501C241.451 308.695 243.472 310.716 245.665 312.538L292.105 358.978C296.393 363.803 301.622 367.701 307.471 370.432C313.32 373.163 319.665 374.67 326.118 374.86C332.57 375.049 338.993 373.919 344.993 371.536C350.992 369.154 356.442 365.571 361.006 361.006C365.571 356.442 369.154 350.992 371.536 344.993C373.919 338.993 375.049 332.57 374.859 326.118C374.67 319.666 373.163 313.32 370.432 307.471C367.701 301.622 363.803 296.393 358.978 292.105L312.538 245.665C310.276 243.402 307.786 241.379 305.108 239.628C317.647 216.873 325.541 190.402 325.541 162.538C325.541 72.9101 252.631 0 163.003 0L162.538 0.464396ZM162.538 46.904C227.09 46.904 278.637 98.4519 278.637 163.003C278.637 193.653 267.492 221.981 247.987 242.879C247.523 243.343 247.059 243.808 246.594 244.272C244.401 246.095 242.38 248.116 240.557 250.309C220.124 268.885 192.26 279.566 162.074 279.566C97.5231 279.566 45.9752 228.018 45.9752 163.467C45.9752 98.9163 97.5231 47.3684 162.074 47.3684L162.538 46.904Z" fill="black"/>
</svg>
